<svg xmlns="http://www.w3.org/2000/svg" xmlns:xlink="http://www.w3.org/1999/xlink" width="500" height="300" viewBox="0 0 500 300">
  <defs>
    <clipPath id="clip-mr-not-found-fork">
      <rect width="500" height="300"/>
    </clipPath>
  </defs>
  <g id="mr-not-found-fork" clip-path="url(#clip-mr-not-found-fork)">
    <rect width="500" height="300" fill="#fff"/>
    <path id="Caminho_366" data-name="Caminho 366" d="M267.37,466.746c12.8-17.828,20.926-43.391,26.6-69.516,8.969-41.318,12.059-86.616,7.356-130.008-5.106-47.036-4.968-132.9-26.4-163.9-18.114-26.181-106.9-81.462-132.92-82.994-19.483-1.122-37.655,16.314-50.15,40.42C83.5,76.893,77.382,95.9,72.78,115.688c-4.7,20.126-5.71,41.261-8.23,62.34-3.695,30.666-8.33,61.051-15.183,90.2-6.013,25.564-14.545,50.007-15.519,77.982-.873,24.5,3.023,49.5,11.119,70.021,9.808,24.948,25.159,42.663,41.618,54.38a166.728,166.728,0,0,0,123.075,29.377C230.219,496.851,251.481,488.891,267.37,466.746Z" transform="translate(529.239 14.7) rotate(97)" fill="#fef9f9"/>
    <g id="fuzzy-dots" transform="matrix(-0.974, -0.225, 0.225, -0.974, 450.327, 452.734)">
      <path id="frackles" d="M398.744,175.583c-.053,2.538,2.3,4.881,5.254,5.233s5.4-1.425,5.451-3.964-2.3-4.888-5.254-5.239a6.24,6.24,0,0,0-.74-.044C400.844,171.569,398.795,173.254,398.744,175.583ZM-7.636-4.364C-7.692-1.826-5.338.524-2.382.876s5.4-1.425,5.451-3.97S.771-7.976-2.186-8.327a6.215,6.215,0,0,0-.741-.045C-5.539-8.372-7.586-6.687-7.636-4.364Zm19.955,297.38c-.055,2.545,2.3,4.888,5.254,5.239s5.4-1.425,5.451-3.97-2.3-4.881-5.254-5.232a6.218,6.218,0,0,0-.741-.044C14.416,289.008,12.369,290.693,12.319,293.016Zm302.842-33.08a3.554,3.554,0,0,0,3.164,3.5c1.889.319,3.537-.736,3.681-2.35a3.556,3.556,0,0,0-3.166-3.5,4.048,4.048,0,0,0-.662-.055A2.819,2.819,0,0,0,315.16,259.936Zm-73.4-191.884a3.631,3.631,0,0,0,3.368,3.358c1.894.228,3.46-.911,3.493-2.545a3.634,3.634,0,0,0-3.366-3.358,4.13,4.13,0,0,0-.468-.027A2.8,2.8,0,0,0,241.757,68.052ZM169.808,293.016c-.053,2.545,2.3,4.888,5.254,5.239s5.4-1.425,5.451-3.963-2.3-4.888-5.254-5.24a6.286,6.286,0,0,0-.74-.044C171.907,289.008,169.858,290.693,169.808,293.016Zm-111.64,79.9a3.562,3.562,0,0,0,3.164,3.5c1.892.319,3.537-.736,3.681-2.35a3.546,3.546,0,0,0-3.164-3.495,4.021,4.021,0,0,0-.673-.057A2.815,2.815,0,0,0,58.168,372.914Zm316.93-48.46a3.557,3.557,0,0,0,3.167,3.5c1.889.319,3.537-.729,3.678-2.343a3.552,3.552,0,0,0-3.161-3.5,4.041,4.041,0,0,0-.67-.057A2.822,2.822,0,0,0,375.1,324.454ZM101.046-9.946c-.055,2.538,2.3,4.881,5.255,5.233s5.4-1.425,5.451-3.964-2.3-4.888-5.254-5.239a6.255,6.255,0,0,0-.74-.044C103.144-13.96,101.1-12.275,101.046-9.946Z" transform="translate(33.535 -14.282)" fill="#fbdee1" stroke="rgba(0,0,0,0)" stroke-width="1"/>
    </g>
    <g id="Grupo_78" data-name="Grupo 78" transform="translate(-74.952 -20)">
      <path id="Caminho_320" data-name="Caminho 320" d="M340.1,349s2.079,19.888-3.245,52.21c-2.646,16.063,55.393,48.914,36.126,54.87s-96.093-32.155-78.847-61.858S340.1,349,340.1,349Z" transform="translate(-89.722 -194.95)" fill="#ac3e51"/>
      <g id="Grupo_63" data-name="Grupo 63" transform="translate(202.566 154.055)">
        <path id="Caminho_321" data-name="Caminho 321" d="M337.627,405.093a11.246,11.246,0,0,1-.211-3.735c5.325-32.321,2.519-52.354,2.519-52.354s-28.721,15.518-45.968,45.221a21.4,21.4,0,0,0-1.841,4.092C308.328,405.881,328.221,405.907,337.627,405.093Z" transform="translate(-292.125 -349.005)" fill="#d8e7eb"/>
      </g>
      <path id="Caminho_322" data-name="Caminho 322" d="M330.057,371.163s-14.479,20.887-14.537,24.432,2.262,27.915,0,30.016-16.024,1.76-16.024,1.76,3.676-32.011,8.3-40.52S326.689,372.071,330.057,371.163Z" transform="translate(-87.143 -187.69)" fill="#720d2e"/>
      <path id="Caminho_331" data-name="Caminho 331" d="M235.476,450.067C227.547,414.5,248.815,326.435,286.2,322.216c24.04-2.712,82.971,14.09,72,49.716-7.28,23.643-18.165,26.57-23.61,36.535-3.322,6.079-2.6,37.124-3.33,44.779-1.341,14.153-26.092,21.678-40.139,19.493C255.164,467.143,238.656,464.326,235.476,450.067Z" transform="translate(-108.661 -203.821)" fill="#fff"/>
      <g id="Grupo_70" data-name="Grupo 70" transform="translate(183.39 132.442)">
        <path id="Caminho_332" data-name="Caminho 332" d="M327.181,332.726c1.407,8.028,2.744,22.39-1.725,36.932-6.739,21.922-44.722,62.8-47.174,88.455-.384,4.017-.556,7.738-.6,11.211,14.179,1.73,37.9-5.767,39.21-19.615.726-7.655.008-38.7,3.33-44.779,5.445-9.964,16.33-12.892,23.61-36.535C348.589,352.94,340.177,341.04,327.181,332.726Z" transform="translate(-277.681 -332.726)" fill="#d8e7eb"/>
      </g>
      <g id="Grupo_77" data-name="Grupo 77" transform="translate(116.996 131.881) rotate(3)">
        <path id="Caminho_339" data-name="Caminho 339" d="M33.5,125.639S216.958,76.5,237.192,71.791s30.8,4.375,49.041,1.167S386.369.422,391.044,1.184s-49.065,44.5-46.277,46.42,49.139-46.649,54-45.637S361,45.289,361.886,45.333,405.6,2.4,409.232,2.861s-43.353,44.8-41.677,46.363S421.232-1.87,425.068.051,365.686,71.149,351.3,83.13c-24.226,20.179-56.869,21.249-74.6,15.786s-40.818-6.531-55.766-2.582C209.145,99.451,48,164.77,21.084,166.407,5.474,167.357-22.831,139.085,33.5,125.639Z" transform="translate(0 0)" fill="#d8e7eb"/>
        <path id="Caminho_340" data-name="Caminho 340" d="M297.752,29.446c-19.049.337-29.478-6.324-55.948-6.614S87.711,70.706,66.6,77.954c-16.9,5.8-52.9,13.366-66.6,16.154,3.513,7.116,12.805,12.331,19.656,11.914,26.916-1.637,188.062-66.957,199.855-70.074,14.948-3.948,38.035-2.88,55.766,2.582s50.374,4.393,74.6-15.786c4.3-3.579,12.959-12.276,22.881-22.744-2.287,1.666-4.112,2.908-5.07,3.131C362.548,4.323,316.8,29.11,297.752,29.446Z" transform="translate(1.427 60.386)" fill="#b3c2c6"/>
      </g>
      <path id="Caminho_365" data-name="Caminho 365" d="M356.494,434.595a4.433,4.433,0,0,0,1.565-.883,6.671,6.671,0,0,1,2.177-1.414c.945-.189,3.886-1.506,3.991-2.541s0-12.607-1.681-12.7-2.31,7.057-2.31,7.057.291-6.4-2.8-5.834-6.237,4.894-8.128,6.211-2.657,4.8-1.749,6.962C348.432,433.521,349.793,436.71,356.494,434.595Z" transform="translate(-71.518 -172.653)" fill="#ac3e51"/>
      <g id="Grupo_76" data-name="Grupo 76" transform="translate(126.816 123.078)">
        <g id="Grupo_74" data-name="Grupo 74" transform="translate(0)">
          <path id="Caminho_344" data-name="Caminho 344" d="M296.371,341.262c-1.98-14.833-21.491-19.2-29.961-6.867-13.832,20.145-32.443,53.429-31.289,85.382.823,22.791,80.581,50.9,92.3,20.236,4.437-11.616-59-33.363-59-33.363s30.364-44.278,28-65.009C296.4,341.515,296.388,341.389,296.371,341.262Z" transform="translate(-235.07 -325.169)" fill="#f58585"/>
          <path id="Caminho_345" data-name="Caminho 345" d="M252.812,411.47c3.155,5.8,24.562,13.494,31.488,14.891s30.819,11.028,30.819,11.028,2.67,2.8,7.015.218c3.123-11.694-59.1-33.026-59.1-33.026s30.364-44.278,28-65.009a25.047,25.047,0,0,0-1.544-6.043c-8.1,10.648-28,37.04-31.981,44.52C252.485,387.488,249.657,405.665,252.812,411.47Z" transform="translate(-229.691 -323.099)" fill="#f6b4b4"/>
          <path id="Caminho_346" data-name="Caminho 346" d="M254.177,360.543s3.611,19.44,14.584,24.872c2.6-4.245,5.665-9.487,8.667-15.155Z" transform="translate(-228.809 -314.248)" fill="#ac3e51"/>
          <g id="Grupo_72" data-name="Grupo 72" transform="translate(16.626)">
            <path id="Caminho_347" data-name="Caminho 347" d="M264.336,331.989a239.644,239.644,0,0,0-16.745,27.283c3.723,7.384,16.725,25.831,32.8,28.355,7.89-14.016,13.112-35.056,11.925-45.482a27.037,27.037,0,0,0-2.307-7.884C285.343,323.854,270.922,322.675,264.336,331.989Z" transform="translate(-247.592 -325.673)" fill="#fff"/>
          </g>
          <g id="Grupo_73" data-name="Grupo 73" transform="translate(28.668 1.574)">
            <path id="Caminho_348" data-name="Caminho 348" d="M280.342,326.859c.894,6.729,1.978,18.846-.838,24.267-4.008,7.714-19.171,14.5-22,21.495a25.212,25.212,0,0,0-.843,2.531c5.684,5.739,12.844,10.844,20.757,12.087,7.89-14.016,13.112-35.056,11.925-45.482a27.037,27.037,0,0,0-2.307-7.884A14.273,14.273,0,0,0,280.342,326.859Z" transform="translate(-256.662 -326.859)" fill="#d8e7eb"/>
          </g>
        </g>
        <path id="Caminho_349" data-name="Caminho 349" d="M299.756,412.455a10.553,10.553,0,0,1,9.161-1.632c3.658,1.024,8.141,5.616,10.826,5.981s6.49,4.183-.161,5.312c-3.476.591-5.77-1.22-5.268.377s7.3,12.787,6.653,13.725c-1.009,1.456-6.6-5.767-7-4.983s7.736,9.089.729,9.326c-3.692.125-13.37-8.526-14.85-12.033S293.858,417.6,299.756,412.455Z" transform="translate(-214.842 -297.902)" fill="#f58585"/>
      </g>
      <path id="Caminho_319" data-name="Caminho 319" d="M327.269,321.845s11.645-3.415,5.685-12.449c-3.208-4.862-13.8-1.443-13.8-1.443a10.885,10.885,0,0,0-9.442,2.573c-4.238,3.947-3.5,14.736-3.5,14.736S323.4,327.267,327.269,321.845Z" transform="translate(-84.96 -208.784)" fill="#311e69"/>
      <path id="Caminho_333" data-name="Caminho 333" d="M313.007,317.2l-13.781,14.25c-1.152,2.379,8.567,15.089,13.771,13.851,1.523-.362,2.3-2.8,2.432-5.77l.211-16.438Z" transform="translate(-87.263 -205.372)" fill="#f58585"/>
      <path id="Caminho_334" data-name="Caminho 334" d="M313.1,325.137c-2.414-1.713-5.684-4.1-5.684-4.1a12.593,12.593,0,0,0,.422,9.2,12.079,12.079,0,0,0,5.123,5.635Z" transform="translate(-84.767 -204.113)" fill="#311e69"/>
      <path id="Caminho_335" data-name="Caminho 335" d="M316.579,314.685l-8.067,7.489a6.715,6.715,0,0,0,.255,9.363c2.086,2.022,3.674,2.908,7.023,4.267,2.791,1.133,5.524-.633,7.424-4.061a36.607,36.607,0,0,0,3.865-11.84C327.979,313.983,322.2,310.19,316.579,314.685Z" transform="translate(-84.771 -206.843)" fill="#f58585"/>
      <path id="Caminho_336" data-name="Caminho 336" d="M308.513,322l8.067-7.489a10.042,10.042,0,0,1,2.055-1.285c-1.154,1.76-3.362,5.706-3.234,6.65.329,2.422,1.1.794,4.225,2.4,1.989,1.025,4.179,3.42,5.511,5.028a30.436,30.436,0,0,1-1.921,4.262c-1.9,3.428-4.634,5.194-7.424,4.061-3.35-1.36-4.938-2.245-7.023-4.267A6.715,6.715,0,0,1,308.513,322Z" transform="translate(-84.771 -206.673)" fill="#311e69"/>
      <path id="Caminho_337" data-name="Caminho 337" d="M315.528,321.507a18.1,18.1,0,0,0,5.133,3.052s-1.021,2.038-2.613,2.061S314.931,324.286,315.528,321.507Z" transform="translate(-81.934 -203.96)" fill="#fff"/>
      <g id="Grupo_71" data-name="Grupo 71" transform="translate(221.964 115.169)">
        <path id="Caminho_338" data-name="Caminho 338" d="M318.489,330.556c-2.6-2.208-7.281.992-10.155-6.091-.536-1.321,0-3.488.356-4.749l-.177.163a6.715,6.715,0,0,0,.255,9.363c2.086,2.022,3.674,2.908,7.023,4.267a4.679,4.679,0,0,0,4.866-.887C320.088,332.416,319.284,331.231,318.489,330.556Z" transform="translate(-306.736 -319.716)" fill="#1e1240"/>
      </g>
      <path id="Caminho_341" data-name="Caminho 341" d="M313.933,318.305a9.512,9.512,0,0,1,.82-1.864c.627-1.135,1.3-2.966-.844-3.07-3.115-.15-6.2,5.344-3.652,7.355C312.15,322.221,313.435,319.952,313.933,318.305Z" transform="translate(-83.927 -206.627)" fill="#f58585"/>
      <path id="Caminho_342" data-name="Caminho 342" d="M309.042,340.687s-6.014-12.915-4.959-15.454a23.938,23.938,0,0,0-8.253,1.758c-3.54,1.66,2.094,17.9,2.094,17.9S303.614,338.969,309.042,340.687Z" transform="translate(-88.727 -202.74)" fill="#fff"/>
      <path id="Caminho_343" data-name="Caminho 343" d="M304.7,337.792l2.643-.289a7.2,7.2,0,0,0,5.3-3.307l.985-1.557s2.086,1.859,2.045,6.009c-.032,3.245-4.57,9.357-4.57,9.357S306.912,338.149,304.7,337.792Z" transform="translate(-85.438 -200.313)" fill="#fff"/>
    </g>
  </g>
</svg>
