<svg xmlns="http://www.w3.org/2000/svg" xmlns:xlink="http://www.w3.org/1999/xlink" width="500" height="300" viewBox="0 0 500 300">
  <defs>
    <clipPath id="clip-restaurants-empty">
      <rect width="500" height="300"/>
    </clipPath>
  </defs>
  <g id="restaurants-empty" clip-path="url(#clip-restaurants-empty)">
    <rect width="500" height="300" fill="#fff"/>
    <g id="deco-blob-3" transform="matrix(0.017, -1, 1, 0.017, 77, 293.541)">
      <path id="deco-blob-3-2" data-name="deco-blob-3" d="M11.176,153.222c-2.024-3.758-1.147-7.679.82-11.817s2.844-8.637,4.264-12.962c1.344-4.082,2.193-8.375,4.28-12.168,5.344-9.72,11.207-19.239,16.981-28.785,1.874-3.1,4.121-6.039,6.174-9.065,4.44-6.545,10.618-11.94,16.424-17.541C66.893,54.35,73.953,48,81.35,41.978a131.018,131.018,0,0,1,17.7-12.311C113.2,21.6,127.691,13.976,144.162,9.6c5.593-1.486,11.007-3.456,16.592-4.967a114.77,114.77,0,0,1,41.881-3c20.768,2.154,35.13,11.951,41.8,29.031a84.75,84.75,0,0,1,4.223,16.064c1.134,6.4,1.51,12.9,2.348,19.349,1.2,9.2,2.806,18.3,7.492,26.827a90.486,90.486,0,0,1,9.764,27.9c2.377,13.386,6.927,26.277,11.448,39.207,3.511,10.041,6.927,20.132,8.464,30.585a62.311,62.311,0,0,0,1.4,6.632,60.519,60.519,0,0,1,2.074,16.347,21.86,21.86,0,0,0,.444,5.967c1.534,5.763.633,11.365-.584,17.071a153.116,153.116,0,0,1-10.828,31.584c-6.253,13.692-15.621,25.672-27.56,36.23-4.277,3.781-8.741,7.412-12.958,11.241-14.279,12.967-32.61,19.3-52.472,22.876-19.395,3.494-39.154,3.87-58.813,2.81-27.91-1.505-54.664-7.193-78.45-20.237-15.121-8.291-26.742-19.341-32.94-34.127-5.264-12.561-7.88-25.56-9.994-38.685-.8-4.943-1.563-9.907-2.767-14.784A145.793,145.793,0,0,1,.4,193.341c.381-11.072,3-21.8,6.177-32.453C7.34,158.333,9.432,156.06,11.176,153.222Zm96.475,87.568c-3.15-.835-3.15-.835-4.093,1.277Z" transform="translate(-0.318 -0.933)" fill="#faf9f9"/>
    </g>
    <g id="fuzzy-dots" transform="matrix(-0.974, -0.225, 0.225, -0.974, 433.327, 348.734)">
      <path id="frackles" d="M398.744,175.583c-.053,2.538,2.3,4.881,5.254,5.233s5.4-1.425,5.451-3.964-2.3-4.888-5.254-5.239a6.24,6.24,0,0,0-.74-.044C400.844,171.569,398.795,173.254,398.744,175.583ZM-7.636-4.364C-7.692-1.826-5.338.524-2.382.876s5.4-1.425,5.451-3.97S.771-7.976-2.186-8.327a6.215,6.215,0,0,0-.741-.045C-5.539-8.372-7.586-6.687-7.636-4.364Zm19.955,297.38c-.055,2.545,2.3,4.888,5.254,5.239s5.4-1.425,5.451-3.97-2.3-4.881-5.254-5.232a6.218,6.218,0,0,0-.741-.044C14.416,289.008,12.369,290.693,12.319,293.016Zm302.842-33.08a3.554,3.554,0,0,0,3.164,3.5c1.889.319,3.537-.736,3.681-2.35a3.556,3.556,0,0,0-3.166-3.5,4.048,4.048,0,0,0-.662-.055A2.819,2.819,0,0,0,315.16,259.936Zm-73.4-191.884a3.631,3.631,0,0,0,3.368,3.358c1.894.228,3.46-.911,3.493-2.545a3.634,3.634,0,0,0-3.366-3.358,4.13,4.13,0,0,0-.468-.027A2.8,2.8,0,0,0,241.757,68.052ZM169.808,293.016c-.053,2.545,2.3,4.888,5.254,5.239s5.4-1.425,5.451-3.963-2.3-4.888-5.254-5.24a6.286,6.286,0,0,0-.74-.044C171.907,289.008,169.858,290.693,169.808,293.016Zm-111.64,79.9a3.562,3.562,0,0,0,3.164,3.5c1.892.319,3.537-.736,3.681-2.35a3.546,3.546,0,0,0-3.164-3.495,4.021,4.021,0,0,0-.673-.057A2.815,2.815,0,0,0,58.168,372.914Zm316.93-48.46a3.557,3.557,0,0,0,3.167,3.5c1.889.319,3.537-.729,3.678-2.343a3.552,3.552,0,0,0-3.161-3.5,4.041,4.041,0,0,0-.67-.057A2.822,2.822,0,0,0,375.1,324.454ZM101.046-9.946c-.055,2.538,2.3,4.881,5.255,5.233s5.4-1.425,5.451-3.964-2.3-4.888-5.254-5.239a6.255,6.255,0,0,0-.74-.044C103.144-13.96,101.1-12.275,101.046-9.946Z" transform="translate(33.535 -14.282)" fill="#fbdee1" stroke="rgba(0,0,0,0)" stroke-width="1"/>
    </g>
    <g id="Grupo_79" data-name="Grupo 79" transform="translate(-1447 -707)">
      <g id="Comp" transform="translate(1541 755)">
        <g id="Platform_LP_D" transform="translate(0 0)">
          <g id="CB_01" transform="translate(0 0)">
            <g id="live-profiles" transform="translate(0 0)">
              <path id="Stroke-1" d="M128.6,57.106l3.727.933,3.776-.631,3.756.476,3.772.086,3.707-1.071,3.78.13,3.752-.045,3.756.229,3.768-.407,3.739.611,3.764-.464,3.752.481,3.735.46,3.78-.436,3.756-.248,3.751.261,3.76-.216,3.784.391,3.735-.513,3.764-.13,3.759.077,3.739.115,3.76-.966,3.772.163,3.736.672,3.723.758,3.8-.069,3.768-.036,3.743-.591,3.764-.077,3.764.155,3.739-.868,3.784.843,3.751-.367,3.768-.069,3.752.5L267.6,57.2l3.792-.078,3.772.184M128.576,73.5l3.606.37,3.614-.1,3.622-.159,3.589.884,3.626-.13,3.626.134,3.589-.619,3.638.534,3.606-.819,3.594.99,3.626-.094,3.625-.248,3.618.1,3.6-.595,3.638.415,3.6.086,3.622.045,3.614-.179,3.6.171,3.634-.423,3.618-.228,3.606.558,3.622-.114,3.63.375,3.594-.717,3.614-.407,3.642-.139,3.606.521,3.638-.049,3.581.473,3.593-.228,3.618-.285,3.634-.212,3.618.29,3.646-.216,3.6.758,3.6-.489,3.646.009,3.61-.424,3.618-.1,3.626.081,3.609.713,3.622-.073,3.642-.383,3.614.741,3.642-.574,3.638-.142,3.6,1.124m-173.6,15.762,3.662.8,3.691-.335,3.691-.1,3.675-.065,3.678.611,3.691-.375,3.658-.546,3.7-.041,3.662-.892,3.695.656,3.686.2,3.695-.448,3.654.741,3.691.089,3.7-.232,3.674-.049,3.667-.526,3.686-.22,3.687-.135,3.686,1,3.7-.855,3.65.778,3.731-.269,3.667.2,3.694.852,3.642-1.153,3.711.705,3.667.216,3.695.11,3.7-.7,3.707.256,3.65-.872,3.695-.277" transform="translate(19.059 14.741)" fill="none" stroke="#ef2840" stroke-linecap="round" stroke-linejoin="round" stroke-width="2" fill-rule="evenodd"/>
              <path id="Stroke-3" d="M121.022,46.958l.04,3.6,1.217,3.41-.02,3.553.085,3.54.584,3.556-1.249,3.447.422,3.634-.9,3.471-1.217,3.32-1.152,3.353-1.46,3.235-1.5,3.186-1.87,3-1.058,3.463-2.77,2.444-1.322,3.406-2.466,2.591-2.36,2.693-2.782,2.2-2.807,2.212-3.192,1.609-3.261,1.491L89.5,116.113l-3.549.685L82.7,118.187l-3.318,1.222-3.536.285-3.216,1.842-3.638-.232-3.443.994-3.577,0-3.52.081-3.427-.754-3.536-.473-3.626-.041-3.411-1.035-3.395-1.071-3.472-.97-2.79-2.4L31.415,114.4l-2.92-2.057-2.73-2.253L22.65,108.3l-2.356-2.713-2.738-2.282-2.405-2.615-1.63-3.235-1.712-3.051-1.971-2.95L7.458,88.729,6,85.469,4.74,82.137l-1.679-3.19-.718-3.528-.819-3.475.247-3.654L.607,64.818.421,61.25l.673-3.573.053-3.565.925-3.467.572-3.516.714-3.5.872-3.467L6.237,37.14l1.278-3.3,2.393-2.693,1.342-3.361,1.926-2.974,2.15-2.827,2.048-2.913,2.989-1.943,2.62-2.4,2.64-2.379,3.147-1.581,3.07-1.727,2.807-2.188,3.269-1.328L40.99,3.75,44.283,2.4,47.8,1.884l3.39-1.1,3.594.134,3.48-.3L61.784.9,65.3.939l3.492.257,3.553-.155,3.333,1.3,3.52.424,3.277,1.283,3.111,1.7,3.293,1.234,3.03,1.833,3.009,1.74,3.03,1.768,2.64,2.347,2.977,1.956,2.672,2.363,2.328,2.73,2.495,2.534,1.626,3.161,1.476,3.271,2.6,2.681.7,3.573,1.513,3.222,1.57,3.247Z" transform="translate(1.571 -0.617)" fill="none" stroke="#ef2840" stroke-linecap="round" stroke-linejoin="round" stroke-width="2" fill-rule="evenodd"/>
              <path id="Stroke-4" d="M218.514,41.125l-.856,1.715-.861,1.841-1.526,1.24-1.794.624-1.828.767-1.872.577-2.374.2-2.395-.115-2.385-.2-2.377-.2-2.39-.228-2.416.3-2.392-.231-2.387.316-2.405-.25-2.377.409-2.406-.181-2.382.407-2.385-.178-2.4.025-2.385-.33-2.39.022-2.4.107-2.4-.1-2.384.2-2.4.635h-2.4l-2.382-.9-2.395-.16-2.393.407-2.405-.544-2.39.094-2.358.825-2.411-.679-2.382.574-2.393-.313-2.385-.008-2.405.08-2.385-.528-2.4-.011-2.39.094-2.384.736-2.369-.728-2.395-.036-2.4-.217-2.4.069-2.4-.027-2.392.448-2.387-.074-2.392.1-2.39-.173-2.379-.253-2.419.492-2.385-.338-2.4-.047-2.374.481-2.4.066-2.371-.4-2.405.058-2.4-.3-2.39.421-2.395.088-2.387.379-2.395.1-2.4-.253L66.3,47.8,63.9,47.724l-2.421.212-2.374-.555-2.39-.1-2.4.214-2.385.242-2.4-.176-2.377.429-2.4.25-2.4-.231-2.4-.044-2.4-.025-2.395.088-2.4.047-2.39-.256-2.4-.14-2.406-.093-2.39.613-2.406-.192-2.413-.1-2.377-.319-2.385.135-2.387.4-2.45.14-1.933-.657L5.079,46.485,2.9,46.49,1.6,43.8.05,41.383.2,41.268,1.93,39,3.3,36.53,4.974,35.5l1.991-.1,1.817-.753,2.4,0,2.382-.44,2.4.492,2.369.28,2.437-.264,2.374.28,2.382-.148,2.406-.129,2.382-.467,2.39.572,2.4-.256,2.39.165,2.395-.11,2.379.407,2.4.151,2.39-.509,2.4.566,2.393-.291,2.385.245,2.395-.137,2.395-.11,2.39,0,2.39-.19,2.4.132,2.382.129,2.39-.116,2.39-.143L75.742,35l2.39-.22,2.4.2,2.385-.151,2.4-.005L87.7,34.43l2.395-.011,2.369.495,2.408-.138,2.374-.236,2.4.3,2.39-.385,2.39.509,2.4-.393,2.4-.019,2.393.11,2.379.4,2.393.132,2.387-.366,2.4.22,2.393-.242,2.4.376,2.395-.137,2.387-.525,2.4.146,2.4.005,2.387.212,2.379-.212,2.4.049,2.4-.082,2.39.2,2.4.082,2.4-.154,2.387-.027,2.4.088,2.393.247,2.374-.363,2.429.355,2.385-.316,2.39-.066,2.382.445,2.4-.041,2.39.072,2.406-.487,2.395.591,2.374-.668,2.4-.069,2.4-.061,2.414.363,2.377-.588,2.408.11,2.392.283,2.4.069,2.4.03,2.4.042,2.408-.03h2.432l1.781.877,1.959.148,1.7.767,1.447,2.342,1.26,2.592Z" transform="translate(0.186 121.156)" fill="none" stroke="#ef2840" stroke-linecap="round" stroke-linejoin="round" stroke-width="2" fill-rule="evenodd"/>
              <path id="Stroke-5" d="M224.7,52.942l-1.053,1.751-1.487,1.494-.819,2.033-2.028.536-2.1-.18-1.907.818-2.446.282-2.454.093-2.46.231-2.451-.679-2.459.51-2.46.144-2.446-.423L195.69,59.1l-2.462-.1-2.454.152-2.454-.093-2.449-.039-2.457.383-2.443-.53-2.462-.113-2.457.254-2.449.316-2.462.3-2.438-.77-2.462.237-2.457-.006-2.451-.18-2.454.189-2.457.071-2.446-.068-2.459-.226-2.444.434-2.451.056-2.44.44-2.46-.445-2.478.386-2.451-.265-2.443-.13-2.441-.386-2.446.327-2.457.009-2.443-.237-2.46.33-2.451-.285-2.446-.31-2.459.166-2.457-.144-2.449,0-2.46.369-2.451-.121-2.457-.065-2.438.544-2.489-.538-2.441.3-2.43.665-2.47-.42-2.438-.133-2.5.352L82.83,59.37l-2.44-.4-2.465.541-2.446-.031-2.449-.045-2.451.271-2.462-.054-2.449.186L63.2,59.787l-2.454-.316-2.476.2-2.481-.051-2.43-.336-2.441-.082-2.454.189-2.46.147-2.47.1L41.1,59.062l-2.459-.273-2.457.42-2.465-.5-2.454.488-2.449.229-2.465-.155-2.462.431-2.451-.569-2.459-.2L16.5,59.2l-2.459-.4-2.462-.011L9.1,59.533l-2.012-.442-2.012-.248-1.956-.671-.787-1.889L1.069,54.664.388,52.711,0,52.688,1.751,50.34l1.934-2.117,1.6-1.212,1.923-.55,1.934-.406,2.416.194,2.486-.358,2.433.536,2.449-.347,2.457.344,2.446-.406,2.473.46,2.438-.5,2.465.285,2.449-.555,2.454-.132,2.449.116h2.451l2.454.377,2.454.446,2.457-.161,2.449-.313,2.46.073,2.449.245,2.454-.31,2.454.352,2.449.093,2.459-.136L68,46.216l2.446-.1,2.441-.389,2.46.451,2.46-.462,2.451.192,2.449.259,2.441-.4,2.465.525,2.451-.24,2.451.034,2.446.257,2.454-.062,2.465.378,2.449-.293,2.444-.42,2.457-.186,2.451.352,2.459.2,2.433-.485,2.457-.118,2.462-.2,2.454.3,2.47-.155,2.438.772,2.449-.668,2.462.307,2.454-.1,2.462-.276,2.449.341,2.454-.209,2.468.516,2.438-.519,2.462-.1L151.4,46l2.467.045,2.451.245,2.451.1,2.46.183,2.467.113,2.444-.485,2.454-.254,2.465-.254,2.443.2,2.462-.194h2.457l2.449.16,2.46-.07,2.47.279,2.443-.229,2.468-.132,2.459-.014,2.446.434,2.465-.217,2.443.657,2.465-.183,2.473-.1,2.46.282,2.481.135,2.443-.5,2.473-.456,1.988.544,1.824,1.085,1.856.454,1.315,1.444.991,1.835,1.258,1.641Z" transform="translate(2 143.778)" fill="none" stroke="#ef2840" stroke-linecap="round" stroke-linejoin="round" stroke-width="2" fill-rule="evenodd"/>
            </g>
          </g>
        </g>
      </g>
      <path id="icons8-loja" d="M14.393,3A5.384,5.384,0,0,0,9.036,8.413v2.706L1,21.945a5.357,5.357,0,1,0,10.714,0l5.357-10.826h8.036L22.429,21.945a5.357,5.357,0,1,0,10.714,0V11.119H43.857V21.945a5.384,5.384,0,0,0,5.357,5.413,5.315,5.315,0,0,0,1.078-.111,5.4,5.4,0,0,0,4.28-5.3L51.893,11.119h8.036l5.357,10.826a5.357,5.357,0,1,0,10.714,0L67.964,11.119V8.413A5.384,5.384,0,0,0,62.607,3Zm18.75,28.265a10.266,10.266,0,0,1-10.7.005,10.312,10.312,0,0,1-10.7.011,10.538,10.538,0,0,1-5.389,1.491V62.543a5.384,5.384,0,0,0,5.357,5.413H43.857V40.891H59.929V67.956h5.357a5.384,5.384,0,0,0,5.357-5.413V32.771a10.538,10.538,0,0,1-5.388-1.491,10.312,10.312,0,0,1-10.7-.011,10.266,10.266,0,0,1-10.7-.005,10.279,10.279,0,0,1-10.714,0ZM17.071,40.891H33.143V57.13H17.071Z" transform="translate(1563 780)" fill="none" stroke="#ef2840" stroke-linecap="round" stroke-linejoin="round" stroke-width="2"/>
    </g>
  </g>
</svg>
